<svg width="701" height="501" viewBox="0 0 701 501" fill="none" xmlns="http://www.w3.org/2000/svg">
<rect width="169.324" height="24.6798" rx="10" fill="#2D2D2D"/>
<rect y="129.569" width="116.269" height="24.6798" rx="10" fill="#FFC24D"/>
<rect y="215.948" width="154.649" height="24.6798" rx="10" fill="#FFC24D"/>
<rect y="345.517" width="154.649" height="24.6798" rx="10" fill="#FFC24D"/>
<rect y="433.131" width="189.643" height="24.6798" rx="10" fill="#FFC24D"/>
<rect y="388.707" width="88.0483" height="24.6798" rx="10" fill="#FFC24D"/>
<rect x="407.506" y="345.517" width="293.494" height="24.6798" rx="10" fill="#FFD88D"/>
<rect x="515.873" y="433.131" width="130.944" height="24.6798" rx="10" fill="#FFD88D"/>
<rect x="169.324" y="345.517" width="99.3366" height="24.6798" rx="10" fill="#C6A972"/>
<rect x="283.335" y="345.517" width="109.496" height="24.6798" rx="10" fill="#845E15"/>
<rect x="206.575" y="433.131" width="292.366" height="24.6798" rx="10" fill="#845E15"/>
<rect x="108.367" y="388.707" width="66.6006" height="24.6798" rx="10" fill="#845E15"/>
<rect y="172.759" width="74.5024" height="24.6798" rx="10" fill="#FFC24D"/>
<rect x="129.815" y="129.569" width="73.3736" height="24.6798" rx="10" fill="#2D2D2D"/>
<rect x="92.5637" y="172.759" width="73.3736" height="24.6798" rx="10" fill="#2D2D2D"/>
<rect x="169.324" y="215.948" width="314.942" height="24.6798" rx="10" fill="#845E15"/>
<rect y="259.138" width="165.937" height="24.6798" rx="10" fill="#2D2D2D"/>
<rect x="255.114" y="476.32" width="229.151" height="24.6798" rx="10" fill="#2D2D2D"/>
<rect y="476.32" width="241.568" height="24.6798" rx="10" fill="#2D2D2D"/>
<rect x="196.416" y="388.707" width="115.14" height="24.6798" rx="10" fill="#2D2D2D"/>
<rect x="176.097" y="259.138" width="475.235" height="24.6798" rx="10" fill="#2D2D2D"/>
<rect x="84.6619" y="43.1897" width="169.324" height="24.6798" rx="10" fill="#2D2D2D"/>
<rect x="268.66" y="43.1897" width="89.1771" height="24.6798" rx="10" fill="#2D2D2D"/>
<path d="M180.612 10C180.612 4.47715 185.089 0 190.612 0H226.894H263.175C268.698 0 273.175 4.47715 273.175 10V14.6798C273.175 20.2027 268.698 24.6798 263.175 24.6798H190.612C185.089 24.6798 180.612 20.2027 180.612 14.6798V10Z" fill="#2D2D2D"/>
</svg>
