<svg width="680" height="444" viewBox="0 0 680 444" fill="none" xmlns="http://www.w3.org/2000/svg">
<path d="M494 275L464 326.962H404L374 275L404 223.038H464L494 275Z" fill="#FFDB5E"/>
<path d="M399 222L369 273.962H309L279 222L309 170.038H369L399 222Z" fill="#D1B349"/>
<path d="M307 384L277 435.962H217L187 384L217 332.038H277L307 384Z" fill="#D1B349"/>
<path d="M680 277L650 328.962H590L560 277L590 225.038H650L680 277Z" fill="#FFDB5E"/>
<path d="M120 168L90 219.962H30L0 168L30 116.038H90L120 168Z" fill="#FFDB5E"/>
<path d="M493 168L463 219.962H403L373 168L403 116.038H463L493 168Z" fill="#D1B349"/>
<path d="M213 222L183 273.962H123L93 222L123 170.038H183L213 222Z" fill="#FFDB5E"/>
<path d="M587 222L557 273.962H497L467 222L497 170.038H557L587 222Z" fill="#D1B349"/>
<path d="M120 275L90 326.962H30L0 275L30 223.038H90L120 275Z" fill="#D1B349"/>
<path d="M399 114L369 165.962H309L279 114L309 62.0385L369 62.0385L399 114Z" fill="#FFDB5E"/>
<path d="M306 60L276 111.962H216L186 60L216 8.03848L276 8.03848L306 60Z" fill="#D1B349"/>
<path d="M307 277L277 328.962H217L187 277L217 225.038H277L307 277Z" fill="#FFDB5E"/>
<path d="M587 114L557 165.962H497L467 114L497 62.0385L557 62.0385L587 114Z" fill="#FFDB5E"/>
</svg>
